<?xml version="1.0" encoding="UTF-8"?>
<svg xmlns="http://www.w3.org/2000/svg" width="2160" height="810" viewBox="0 0 2160 810">
<defs>
<marker id="m_arr_1_2" markerWidth="8" markerHeight="8" refX="7" refY="3" orient="auto"><path d="M0,0 L0,6 L8,3 z" fill="#1e3a5f"/></marker>
<marker id="m_arr_2_3" markerWidth="8" markerHeight="8" refX="7" refY="3" orient="auto"><path d="M0,0 L0,6 L8,3 z" fill="#1e3a5f"/></marker>
<marker id="m_arr_3_4" markerWidth="8" markerHeight="8" refX="7" refY="3" orient="auto"><path d="M0,0 L0,6 L8,3 z" fill="#64748b"/></marker>
<marker id="m_arr_4_5" markerWidth="8" markerHeight="8" refX="7" refY="3" orient="auto"><path d="M0,0 L0,6 L8,3 z" fill="#64748b"/></marker>
<marker id="m_arr_5_6" markerWidth="8" markerHeight="8" refX="7" refY="3" orient="auto"><path d="M0,0 L0,6 L8,3 z" fill="#1e3a5f"/></marker>
<marker id="m_arr_6_7" markerWidth="8" markerHeight="8" refX="7" refY="3" orient="auto"><path d="M0,0 L0,6 L8,3 z" fill="#047857"/></marker>
<marker id="m_arr_eval_down" markerWidth="8" markerHeight="8" refX="7" refY="3" orient="auto"><path d="M0,0 L0,6 L8,3 z" fill="#b45309"/></marker>
<marker id="m_arr_eval_right" markerWidth="8" markerHeight="8" refX="7" refY="3" orient="auto"><path d="M0,0 L0,6 L8,3 z" fill="#047857"/></marker>
</defs>
<rect width="100%" height="100%" fill="#ffffff"/>

<rect x="40.0" y="70.0" width="820" height="700" rx="8" ry="8" fill="#eff6ff" stroke="#bfdbfe" stroke-width="1" />
<rect x="875.0" y="70.0" width="355" height="700" rx="8" ry="8" fill="#fffbeb" stroke="#fde68a" stroke-width="1" />
<rect x="1245.0" y="70.0" width="870" height="700" rx="8" ry="8" fill="#f0fdf4" stroke="#bbf7d0" stroke-width="1" />
<rect x="60.0" y="234.0" width="190" height="100" rx="8" ry="8" fill="#3b82f6" stroke="#1e3a5f" stroke-width="2" />
<rect x="310.0" y="234.0" width="210" height="100" rx="8" ry="8" fill="#3b82f6" stroke="#1e3a5f" stroke-width="2" />
<ellipse cx="667.5" cy="284.0" rx="82.5" ry="38.0" fill="#93c5fd" stroke="#1e3a5f" stroke-width="2" />
<rect x="905.0" y="234.0" width="200" height="100" rx="8" ry="8" fill="#fef3c7" stroke="#b45309" stroke-width="2" />
<rect x="1275.0" y="234.0" width="220" height="100" rx="8" ry="8" fill="#60a5fa" stroke="#1e3a5f" stroke-width="2" />
<rect x="1565.0" y="234.0" width="230" height="100" rx="8" ry="8" fill="#3b82f6" stroke="#1e3a5f" stroke-width="2" />
<ellipse cx="1957.0" cy="284.0" rx="95.0" ry="38.0" fill="#a7f3d0" stroke="#047857" stroke-width="2" />
<rect x="1565.0" y="544.0" width="230" height="100" rx="8" ry="8" fill="#fef3c7" stroke="#b45309" stroke-width="2" />
<ellipse cx="1957.0" cy="594.0" rx="95.0" ry="38.0" fill="#a7f3d0" stroke="#047857" stroke-width="2" />
<path d="M 250.0,284.0 L 310.0,284.0" fill="none" stroke="#1e3a5f" stroke-width="2"  marker-end="url(#m_arr_1_2)"/>
<path d="M 520.0,284.0 L 585.0,284.0" fill="none" stroke="#1e3a5f" stroke-width="2"  marker-end="url(#m_arr_2_3)"/>
<path d="M 750.0,284.0 L 905.0,284.0" fill="none" stroke="#64748b" stroke-width="2"  marker-end="url(#m_arr_3_4)"/>
<path d="M 1105.0,284.0 L 1275.0,284.0" fill="none" stroke="#64748b" stroke-width="2"  marker-end="url(#m_arr_4_5)"/>
<path d="M 1495.0,284.0 L 1565.0,284.0" fill="none" stroke="#1e3a5f" stroke-width="2"  marker-end="url(#m_arr_5_6)"/>
<path d="M 1795.0,284.0 L 1862.0,284.0" fill="none" stroke="#047857" stroke-width="2"  marker-end="url(#m_arr_6_7)"/>
<path d="M 1550.0,524.0 L 2120.0,524.0" fill="none" stroke="#b45309" stroke-width="1" stroke-dasharray="8,5" />
<path d="M 1680.0,334.0 L 1680.0,544.0" fill="none" stroke="#b45309" stroke-width="2" stroke-dasharray="8,5" marker-end="url(#m_arr_eval_down)"/>
<path d="M 1795.0,594.0 L 1862.0,594.0" fill="none" stroke="#047857" stroke-width="2"  marker-end="url(#m_arr_eval_right)"/>
<rect x="60.0" y="416.0" width="255" height="82" rx="8" ry="8" fill="#1e293b" stroke="#334155" stroke-width="1" />
<rect x="310.0" y="416.0" width="210" height="82" rx="8" ry="8" fill="#1e293b" stroke="#334155" stroke-width="1" />
<rect x="1558.0" y="416.0" width="244" height="82" rx="8" ry="8" fill="#1e293b" stroke="#334155" stroke-width="1" />
<rect x="1848.0" y="416.0" width="218" height="82" rx="8" ry="8" fill="#1e293b" stroke="#334155" stroke-width="1" />
<text x="46.0" y="59.0" fill="#94a3b8" font-size="13" font-family="monospace" text-anchor="start">NERS Export  &#8594;  Prefill Booklets  &#8594;  Print &amp; Distribute  &#8594;  Exam  &#8594;  Collect &amp; Scan PDF  &#8594;  OMR Engine  &#8594;  Answers CSV     (optional: &#8594; Evaluation &#8594; Scored CSV)</text>
<text x="61.0" y="112.0" fill="#1e40af" font-size="20" font-family="monospace" text-anchor="start">Pre-Exam Preparation</text>
<text x="894.0" y="112.0" fill="#92400e" font-size="20" font-family="monospace" text-anchor="start">Exam Day</text>
<text x="1266.0" y="112.0" fill="#065f46" font-size="20" font-family="monospace" text-anchor="start">Post-Exam Processing</text>
<text x="155.0" y="286.1" fill="#ffffff" font-size="17" font-family="monospace" text-anchor="middle">NERS System</text>
<text x="415.0" y="275.0" fill="#ffffff" font-size="15" font-family="monospace" text-anchor="middle">Prefill Sheets</text>
<text x="415.0" y="296.8" fill="#ffffff" font-size="15" font-family="monospace" text-anchor="middle">(OMRCheckerMoE)</text>
<text x="667.5" y="275.6" fill="#1e3a5f" font-size="14" font-family="monospace" text-anchor="middle">Print &amp;</text>
<text x="667.5" y="295.9" fill="#1e3a5f" font-size="14" font-family="monospace" text-anchor="middle">Distribute</text>
<text x="1005.0" y="275.0" fill="#78350f" font-size="15" font-family="monospace" text-anchor="middle">Students Fill</text>
<text x="1005.0" y="296.8" fill="#78350f" font-size="15" font-family="monospace" text-anchor="middle">Answer Sheets</text>
<text x="1385.0" y="275.0" fill="#ffffff" font-size="15" font-family="monospace" text-anchor="middle">Collect &amp;</text>
<text x="1385.0" y="296.8" fill="#ffffff" font-size="15" font-family="monospace" text-anchor="middle">Mass Scan &#8594; PDF</text>
<text x="1680.0" y="275.0" fill="#ffffff" font-size="15" font-family="monospace" text-anchor="middle">OMR Engine</text>
<text x="1680.0" y="296.8" fill="#ffffff" font-size="15" font-family="monospace" text-anchor="middle">(OMRCheckerMoE)</text>
<text x="1957.0" y="285.9" fill="#065f46" font-size="15" font-family="monospace" text-anchor="middle">Answers CSV</text>
<text x="828.0" y="278.0" fill="#64748b" font-size="11" font-family="monospace" text-anchor="middle">distributed to</text>
<text x="828.0" y="293.9" fill="#64748b" font-size="11" font-family="monospace" text-anchor="middle">students</text>
<text x="1190.0" y="278.0" fill="#64748b" font-size="11" font-family="monospace" text-anchor="middle">sheets collected</text>
<text x="155.0" y="368.0" fill="#64748b" font-size="12" font-family="monospace" text-anchor="middle">Exports student registry</text>
<text x="155.0" y="385.4" fill="#64748b" font-size="12" font-family="monospace" text-anchor="middle">(name, school, candidate no.)</text>
<text x="415.0" y="368.0" fill="#64748b" font-size="12" font-family="monospace" text-anchor="middle">Generates per-student</text>
<text x="415.0" y="385.4" fill="#64748b" font-size="12" font-family="monospace" text-anchor="middle">pre-filled booklets</text>
<text x="668.0" y="354.0" fill="#64748b" font-size="12" font-family="monospace" text-anchor="middle">physical output</text>
<text x="1005.0" y="368.0" fill="#64748b" font-size="12" font-family="monospace" text-anchor="middle">Exam completed;</text>
<text x="1005.0" y="385.4" fill="#64748b" font-size="12" font-family="monospace" text-anchor="middle">booklets collected afterward</text>
<text x="1385.0" y="368.0" fill="#64748b" font-size="12" font-family="monospace" text-anchor="middle">All answer sheets scanned</text>
<text x="1385.0" y="385.4" fill="#64748b" font-size="12" font-family="monospace" text-anchor="middle">into one multi-page PDF</text>
<text x="1680.0" y="368.0" fill="#64748b" font-size="12" font-family="monospace" text-anchor="middle">Detects filled bubbles on</text>
<text x="1680.0" y="385.4" fill="#64748b" font-size="12" font-family="monospace" text-anchor="middle">every page of the PDF</text>
<text x="1957.0" y="354.0" fill="#064e3b" font-size="12" font-family="monospace" text-anchor="middle">One row per student</text>
<text x="1957.0" y="371.4" fill="#064e3b" font-size="12" font-family="monospace" text-anchor="middle">(selected answer per question)</text>
<text x="66.0" y="442.4" fill="#22c55e" font-size="11" font-family="monospace" text-anchor="start">name, school, candidate_number</text>
<text x="66.0" y="458.4" fill="#22c55e" font-size="11" font-family="monospace" text-anchor="start">&quot;Johnathan R&quot;, Sapodilla, 9010690012</text>
<text x="66.0" y="474.3" fill="#22c55e" font-size="11" font-family="monospace" text-anchor="start">DOB: 2013-04-15, Grade: 4</text>
<text x="316.0" y="442.4" fill="#22c55e" font-size="11" font-family="monospace" text-anchor="start">POST /api/v1/prefill/batch</text>
<text x="316.0" y="458.4" fill="#22c55e" font-size="11" font-family="monospace" text-anchor="start">&#8594; Pre-filled PDF per student</text>
<text x="316.0" y="474.3" fill="#22c55e" font-size="11" font-family="monospace" text-anchor="start">&#8594; omr_marker.jpg included</text>
<text x="1564.0" y="442.4" fill="#22c55e" font-size="11" font-family="monospace" text-anchor="start">Input: multi-page scanned PDF</text>
<text x="1564.0" y="458.4" fill="#22c55e" font-size="11" font-family="monospace" text-anchor="start">Template: custom_25_definitive_final</text>
<text x="1564.0" y="474.3" fill="#22c55e" font-size="11" font-family="monospace" text-anchor="start">&#8594; bubble scan per page</text>
<text x="1854.0" y="442.4" fill="#22c55e" font-size="11" font-family="monospace" text-anchor="start">file_id, q1, q2, ..., q25</text>
<text x="1854.0" y="458.4" fill="#22c55e" font-size="11" font-family="monospace" text-anchor="start">student_001, A, C, ..., B</text>
<text x="1854.0" y="474.3" fill="#22c55e" font-size="11" font-family="monospace" text-anchor="start">student_002, B, A, ..., C</text>
<text x="1558.0" y="546.0" fill="#b45309" font-size="12" font-family="monospace" text-anchor="start">Optional scoring path</text>
<text x="1680.0" y="585.0" fill="#78350f" font-size="15" font-family="monospace" text-anchor="middle">Evaluation</text>
<text x="1680.0" y="606.8" fill="#78350f" font-size="15" font-family="monospace" text-anchor="middle">(Answer Key + Scoring)</text>
<text x="1957.0" y="595.9" fill="#065f46" font-size="15" font-family="monospace" text-anchor="middle">Scored CSV</text>
<text x="1680.0" y="676.0" fill="#64748b" font-size="12" font-family="monospace" text-anchor="middle">Marks responses against</text>
<text x="1680.0" y="693.4" fill="#64748b" font-size="12" font-family="monospace" text-anchor="middle">the answer key + assigns score</text>
<text x="1957.0" y="664.0" fill="#064e3b" font-size="12" font-family="monospace" text-anchor="middle">Per-student score</text>
<text x="1957.0" y="681.4" fill="#064e3b" font-size="12" font-family="monospace" text-anchor="middle">+ answer breakdown</text>
</svg>