<svg xmlns="http://www.w3.org/2000/svg" viewBox="0 0 32 32" aria-hidden="true">
  <defs>
    <linearGradient id="cob" x1="30%" y1="0%" x2="70%" y2="100%">
      <stop offset="0%" stop-color="#fde047"/>
      <stop offset="55%" stop-color="#eab308"/>
      <stop offset="100%" stop-color="#ca8a04"/>
    </linearGradient>
    <linearGradient id="husk" x1="0%" y1="0%" x2="100%" y2="100%">
      <stop offset="0%" stop-color="#4ade80"/>
      <stop offset="100%" stop-color="#15803d"/>
    </linearGradient>
  </defs>
  <!-- App tile -->
  <rect width="32" height="32" rx="8" fill="#1e40af"/>
  <!-- Corn husks -->
  <path d="M5 24c0-9 3.5-15 9-17 2 5 2 11 0 17H5z" fill="url(#husk)" opacity="0.95"/>
  <path d="M27 24c0-9-3.5-15-9-17-2 5-2 11 0 17h9z" fill="#166534" opacity="0.92"/>
  <!-- Cob -->
  <ellipse cx="14" cy="15" rx="5.2" ry="11" fill="url(#cob)"/>
  <!-- Kernel rows -->
  <g fill="#a16207" opacity="0.45">
    <circle cx="12" cy="9" r="0.85"/><circle cx="14" cy="9" r="0.85"/><circle cx="16" cy="9" r="0.85"/>
    <circle cx="11.2" cy="12" r="0.85"/><circle cx="13.3" cy="12" r="0.85"/><circle cx="15.4" cy="12" r="0.85"/><circle cx="17.5" cy="12" r="0.85"/>
    <circle cx="12" cy="15" r="0.85"/><circle cx="14" cy="15" r="0.85"/><circle cx="16" cy="15" r="0.85"/>
    <circle cx="11.2" cy="18" r="0.85"/><circle cx="13.3" cy="18" r="0.85"/><circle cx="15.4" cy="18" r="0.85"/><circle cx="17.5" cy="18" r="0.85"/>
    <circle cx="12" cy="21" r="0.85"/><circle cx="14" cy="21" r="0.85"/><circle cx="16" cy="21" r="0.85"/>
  </g>
  <!-- Save (floppy) icon — overlapping cob -->
  <g transform="translate(17.5 15.5)">
    <rect x="0" y="1.5" width="13" height="11.5" rx="1.2" fill="#f1f5f9"/>
    <rect x="0" y="1.5" width="13" height="4.2" rx="1.2" fill="#cbd5e1"/>
    <rect x="0.8" y="2.2" width="5.2" height="2.6" rx="0.4" fill="#94a3b8"/>
    <rect x="2.4" y="7.2" width="8.2" height="4.6" rx="0.7" fill="#2563eb"/>
    <circle cx="5.8" cy="9.5" r="1.1" fill="#dbeafe"/>
  </g>
</svg>
